<?xml version="1.0" encoding="utf-8"?>
<!-- Designed by Justin Steinman in 2023, conversion to SVG by Matthew Richardson in 2024. Used an online tool to convert Frank Ruhl Libre characters to SVG paths. RMC font weight 800, UMASS font weight 500. -->
<svg xmlns="http://www.w3.org/2000/svg" viewBox="-0.2 -0.1 7.4 7.3">
	<g fill="none" stroke-linejoin="round">
	<!-- light gray lines --><path stroke="gainsboro" stroke-width="0.04" d="M2,2.200962L5,3.933013L2,5.665064V3.933013H3L4,2.200962H5V5.665064H4L3,3.933013"/>
	<!-- monotile outline --><path stroke="gray" stroke-width="0.09" d="M.5,4.799038L1,3.933013H2V2.200962L3.5,1.334936L4,2.200962H5V3.933013L6.5,4.799038L6,5.665064H4L3.5,4.799038L2,5.665064Z"/>
	<!-- circular arc --><path stroke="maroon" stroke-width="0.12" d="M5.69089,.84A3.5,3.5,0,1,1,1.30911,.84"/>
	</g>
	<g fill="maroon" stroke="none">
	<!-- RMC --><path transform="translate(1.13 2.75)scale(0.0225)" d="M84.6,67.201H65.2v-3.3h1.7a18,18,0,0,0,1.448-.055q2.254-.188,3.032-1.016l.07-.079a3.2,3.2,0,0,0,.501-.9q.449-1.188.449-3.25v-48.4q0-2.043-.3-3.217a5,5,0,0,0-.15-.483,2.36,2.36,0,0,0-1.158-1.282,4,4,0,0,0-.842-.318q-1.202-.311-3.456-.38a45,45,0,0,0-1.394-.02v-3.3h23.7l17.3,44.1h.2l16.9-44.1h22.7v3.3q-2.527,0-3.994.249a8,8,0,0,0-.706.151,3.6,3.6,0,0,0-.812.318,2.24,2.24,0,0,0-1.088,1.282q-.4,1.2-.4,3.7v48.1a19,19,0,0,0,.04,1.273q.094,1.398.41,2.277a2.46,2.46,0,0,0,1.384,1.452,4,4,0,0,0,.566.198q1.5.4,4.6.4v3.3h-29.7v-3.3q3.1,0,4.45-.45a3.2,3.2,0,0,0,.846-.419,2.4,2.4,0,0,0,.904-1.231q.4-1.2.4-3.5v-45.7h-.2l-19.9,52.8H97l-20.3-52h-.2v45.2a17,17,0,0,0,.048,1.333q.169,2.158.932,2.946l.02.021a2.3,2.3,0,0,0,.755.477q1.243.523,3.845.523h2.5zm-54.5,0H0v-3.3q2.616,0,4.107-.237a8,8,0,0,0,.793-.163,3.5,3.5,0,0,0,.787-.307,2.1,2.1,0,0,0,1.063-1.293,7,7,0,0,0,.169-.77q.181-1.105.181-2.83v-48.1q0-2.043-.3-3.217a5,5,0,0,0-.15-.483A2.4,2.4,0,0,0,5.423,5.17a4,4,0,0,0-.723-.269,9,9,0,0,0-.978-.194Q2.3,4.501,0,4.501v-3.3h30.8a67,67,0,0,1,5.66.224q2.673.228,4.944.687a29,29,0,0,1,3.696.989,22,22,0,0,1,3.707,1.654q2.086,1.191,3.542,2.759a12,12,0,0,1,.901,1.087q2.65,3.6,2.65,8.8a18.5,18.5,0,0,1-.4,3.943,13.4,13.4,0,0,1-1.85,4.507q-2.25,3.45-6.05,5.4a28.5,28.5,0,0,1-6.634,2.393,33,33,0,0,1-1.766.357v.2a27,27,0,0,1,2.799.678q2.299.697,3.901,1.722a11,11,0,0,1,3.663,3.916,13,13,0,0,1,.287.534,19,19,0,0,1,1.052,2.533q.448,1.318.804,2.87a40,40,0,0,1,.394,1.947l1.1,4.9a61,61,0,0,0,.608,2.499q.526,1.973,1.092,3.451a9,9,0,0,0,.863,1.711,6.3,6.3,0,0,0,1.737,1.789,5.9,5.9,0,0,0,1.612.744q.758.228,1.672.328a14,14,0,0,0,1.516.078v3.3H43.2a7,7,0,0,1-.894-.922q-.826-1.005-1.652-2.575l-.054-.103a22,22,0,0,1-1.504-3.721,26,26,0,0,1-.496-1.879l-3-13.8q-.513-2.641-1.565-4.42a8.5,8.5,0,0,0-.835-1.18q-1.381-1.625-4.149-1.93a12,12,0,0,0-1.351-.07h-4.4v21.7a21,21,0,0,0,.036,1.255q.071,1.164.286,1.945a5,5,0,0,0,.128.4,2.44,2.44,0,0,0,1.313,1.386,4,4,0,0,0,.587.214q1.203.332,3.474.388a39,39,0,0,0,.976.012zm-6.8-58.6v24h3.5q4.264,0,7.09-1.357a9.2,9.2,0,0,0,2.76-1.993q3.15-3.35,3.15-10.65a26,26,0,0,0-.251-3.743q-.279-1.913-.868-3.463a10.7,10.7,0,0,0-1.731-3.044q-2.285-2.766-6.979-3.315a21,21,0,0,0-2.471-.135,14,14,0,0,0-1.051.036q-1.724.128-2.349.714a1.9,1.9,0,0,0-.439.648q-.278.634-.342,1.656a10,10,0,0,0-.019.646Zm185-6.5.3-.9h2.8l1,18.9h-3.5q-.7-3.7-2.25-6.75a19,19,0,0,0-3.29-4.651,18,18,0,0,0-.61-.599q-2.35-2.2-5.5-3.45a17.6,17.6,0,0,0-4.457-1.103,22,22,0,0,0-2.593-.147,21,21,0,0,0-3.953.354q-2.437.47-4.397,1.563a13,13,0,0,0-.4.233q-3.55,2.15-5.8,5.65t-3.4,7.65-1.55,8.25a94,94,0,0,0-.273,3.415q-.095,1.563-.119,2.967a54,54,0,0,0-.008.918,67,67,0,0,0,.364,7.108,54,54,0,0,0,.786,5.092q1.15,5.6,3.6,9.7a19,19,0,0,0,3.519,4.356,17,17,0,0,0,2.681,1.994,15.5,15.5,0,0,0,5.4,1.959,21,21,0,0,0,3.55.291,26,26,0,0,0,3.729-.253,19.4,19.4,0,0,0,3.721-.897,18.5,18.5,0,0,0,5.435-2.992,18,18,0,0,0,.315-.258q2.5-2.1,4.2-4.8t2.8-5.6l2.9,1.2q-1.2,3.4-3.15,6.5a21,21,0,0,1-4.479,5.043,24,24,0,0,1-.571.457,21.2,21.2,0,0,1-4.322,2.562,27,27,0,0,1-3.178,1.188q-4.4,1.35-10.4,1.35a48,48,0,0,1-8.871-.781,35.6,35.6,0,0,1-9.229-3.019q-7.7-3.8-11.85-11.25t-4.15-18.45q0-10.161,3.457-17.483a30,30,0,0,1,.743-1.467q4.2-7.75,12-11.85a34.6,34.6,0,0,1,9.724-3.316A48,48,0,0,1,187.9.001q5.538,0,8.876.88l.074.02a50,50,0,0,1,1.962.567q1.006.315,1.853.635a21,21,0,0,1,1.535.648q1.291.613,2.332.83a5.2,5.2,0,0,0,1.068.12q.9,0,1.65-.4t1.05-1.2z"/>
	<!-- U --><path transform="rotate(-30 3.5 3.5)translate(3.23)scale(0.008)" d="M7.8,44.4V10.2q0-2.112-.348-3.333a5,5,0,0,0-.102-.317,2.35,2.35,0,0,0-1.146-1.296q-.374-.202-.854-.328l-.1-.026a10,10,0,0,0-1.048-.189q-1.09-.145-2.666-.19A54,54,0,0,0,0,4.5V1.2h27.9v3.3q-3.6,0-5.3.4a4.3,4.3,0,0,0-.857.292q-.515.244-.848.612a2.2,2.2,0,0,0-.445.746,6,6,0,0,0-.237.894q-.183.95-.209,2.303A24,24,0,0,0,20,10.2v34.4q0,5.166,1.042,9.029A22,22,0,0,0,21.6,55.4a16.3,16.3,0,0,0,1.635,3.33,12,12,0,0,0,3.165,3.32,12.1,12.1,0,0,0,4.781,1.972,16.7,16.7,0,0,0,3.119.278,16.6,16.6,0,0,0,3.563-.363A11.8,11.8,0,0,0,42.15,62.1a11.7,11.7,0,0,0,3.346-3.665A16.3,16.3,0,0,0,46.85,55.5a25,25,0,0,0,1.032-4.086q.348-2.053.462-4.423A50,50,0,0,0,48.4,44.6V10.2q0-2.112-.348-3.333a5,5,0,0,0-.102-.317,2.35,2.35,0,0,0-1.146-1.296q-.374-.202-.854-.328l-.1-.026a10,10,0,0,0-1.048-.189q-1.09-.145-2.666-.19A54,54,0,0,0,40.6,4.5V1.2h27.9v3.3q-3.7,0-5.35.4t-2.1,1.65a6,6,0,0,0-.237.894q-.183.95-.209,2.303a24,24,0,0,0-.004.453v34.2a38.4,38.4,0,0,1-.539,6.663q-1.325,7.499-5.911,11.587a19.5,19.5,0,0,1-6.323,3.669q-5.58,2.05-13.774,2.081H33.8q-13.247,0-19.473-5.36a16,16,0,0,1-.327-.29q-4.79-4.365-5.879-12.938A43,43,0,0,1,7.8,44.4"/>
	<!-- M --><path transform="rotate(-13 3.5 3.5)translate(2.57)scale(0.008)" d="M97.7,67.2H75.9v-3.3h3q3.182,0,3.941-1.137l.009-.013a3.3,3.3,0,0,0,.363-.793q.275-.852.354-2.186A20,20,0,0,0,83.6,58.6V10.2q0-2.042-.3-3.217a5,5,0,0,0-.15-.483q-.418-1.114-1.869-1.538a5,5,0,0,0-.231-.062,10,10,0,0,0-1.048-.189q-1.09-.145-2.666-.19A54,54,0,0,0,75.8,4.5V1.2H97l18.3,47.7h.3l18.2-47.7h20.5v3.3q-3.5,0-5.2.4a4.5,4.5,0,0,0-.857.288q-.483.224-.806.55a2.1,2.1,0,0,0-.487.762,5,5,0,0,0-.218.778q-.177.861-.219,2.116a24,24,0,0,0-.013.806v48.1a17,17,0,0,0,.046,1.304q.106,1.377.454,2.246.5,1.25,2.15,1.65a10,10,0,0,0,1.072.193q1.073.142,2.598.187a51,51,0,0,0,1.48.02v3.3H127v-3.3q3.7,0,5.3-.45a4.2,4.2,0,0,0,.849-.333q.885-.473,1.201-1.317a5.6,5.6,0,0,0,.237-.857q.213-1.062.213-2.643V10.2h-.2l-21.5,57H110l-21.7-57h-.2v48.4a25,25,0,0,0,.033,1.334q.107,1.944.552,2.777a2,2,0,0,0,.115.189,1.5,1.5,0,0,0,.588.467q.915.45,2.935.52a23,23,0,0,0,.777.013h4.6z"/>
	<!-- A --><path transform="rotate(4 3.5 3.5)translate(1.96)scale(0.008)" d="M180.1,67.2h-20.8v-3.3q2.7,0,4.2-.5t2.35-1.75q.661-.972,1.231-2.396a21,21,0,0,0,.319-.854l20.8-57.2h8.5l20.2,57.7q.8,2,1.6,3.1a3.94,3.94,0,0,0,2.027,1.447l.173.053a8,8,0,0,0,.982.211q1.031.163,2.445.185l.473.004v3.3h-27v-3.3h4.5a5,5,0,0,0,.867-.067q.448-.076.785-.24a1.7,1.7,0,0,0,.898-.993,4,4,0,0,0,.213-1.299q0-.759-.263-1.601l-16-46.7h-.3l-15.5,47a9,9,0,0,0-.152.681q-.249,1.376.135,2.184l.017.035q.5,1,2.4,1h4.9zm19.3-24.3h-21.8l1.5-3.3h19.1z"/>
	<!-- S --><path transform="rotate(18.5 3.5 3.5)translate(1.49)scale(0.008)" d="M233.2,67.2a2,2,0,0,1,.066-.191q.136-.336.407-.635a3,3,0,0,1,.477-.424,2.8,2.8,0,0,1,.704-.376,3.1,3.1,0,0,1,1.046-.174,5,5,0,0,1,.453.022q1.113.107,2.397.728l.144.069q1.529.715,4.106,1.431,1.862.517,4.721.678a50,50,0,0,0,2.779.072,47,47,0,0,0,2.271-.053q2.425-.117,4.532-.492A24,24,0,0,0,261.6,66.7a23,23,0,0,0,3.593-1.708,16.6,16.6,0,0,0,3.607-2.842q2.7-2.85,3.95-6.45t1.25-7.4a27,27,0,0,0-.012-.809q-.148-4.966-2.138-8.391-2.15-3.7-5.85-6.25a38,38,0,0,0-1.431-.939A42.5,42.5,0,0,0,257.8,28.5l-2.9-1.2q-3.1-1.3-6.15-2.95a20,20,0,0,1-1.198-.701,17.2,17.2,0,0,1-3.902-3.349,8.24,8.24,0,0,1-1.712-3.308,11,11,0,0,1-.338-2.792l.004-.307A9.6,9.6,0,0,1,244.65,6.9a10.16,10.16,0,0,1,4.647-2.501A14.5,14.5,0,0,1,252.8,4q3.8,0,6.65,1.7a12.8,12.8,0,0,1,2.656,2.12,16.2,16.2,0,0,1,2.194,2.88q2,3.3,3,8.2h2.4l-1-18.1h-2q-.211.774-.471,1.201A1.6,1.6,0,0,1,266,2.3a1.3,1.3,0,0,1-.645.351,2,2,0,0,1-.455.049q-.787,0-1.747-.301A11,11,0,0,1,262.1,2a18,18,0,0,0-1.152-.454q-1.285-.459-2.998-.896a17,17,0,0,0-1.535-.313q-1.056-.169-2.286-.253A39,39,0,0,0,251.5,0q-6.7,0-11.4,2.5T233,9.2a17.7,17.7,0,0,0-1.554,3.594,20,20,0,0,0-.846,5.906l.003.387q.084,5.541,2.597,9.213,2.6,3.8,6.75,6.25t8.75,4.35l2.2.9q3.384,1.366,5.764,3.031a16.5,16.5,0,0,1,2.786,2.419,10.6,10.6,0,0,1,2.27,3.925,12.8,12.8,0,0,1,.58,3.925q0,3.5-1.45,6.05t-4.1,3.85a12.3,12.3,0,0,1-3.183,1.033,17,17,0,0,1-3.067.267,18,18,0,0,1-2.995-.239A13.6,13.6,0,0,1,243.2,62.6q-3.1-1.7-5.25-4.45t-3.5-5.9-2.25-5.95h-2.5l1.4,20.9z"/>
	<!-- S --><path transform="rotate(32 3.5 3.5)translate(1.07)scale(0.008)" d="M285.5,67.2a2,2,0,0,1,.066-.191q.136-.336.407-.635a3,3,0,0,1,.477-.424,2.8,2.8,0,0,1,.704-.376,3.1,3.1,0,0,1,1.046-.174,5,5,0,0,1,.453.022q1.113.107,2.397.728l.144.069q1.529.715,4.106,1.431,1.862.517,4.721.678a50,50,0,0,0,2.779.072,47,47,0,0,0,2.271-.053q2.425-.117,4.532-.492A24,24,0,0,0,313.9,66.7a23,23,0,0,0,3.593-1.708,16.6,16.6,0,0,0,3.607-2.842q2.7-2.85,3.95-6.45t1.25-7.4a27,27,0,0,0-.012-.809q-.148-4.966-2.138-8.391-2.15-3.7-5.85-6.25a38,38,0,0,0-1.431-.939A42.5,42.5,0,0,0,310.1,28.5l-2.9-1.2q-3.1-1.3-6.15-2.95a20,20,0,0,1-1.198-.701,17.2,17.2,0,0,1-3.902-3.349,8.24,8.24,0,0,1-1.712-3.308,11,11,0,0,1-.338-2.792l.004-.307A9.6,9.6,0,0,1,296.95,6.9a10.16,10.16,0,0,1,4.647-2.501A14.5,14.5,0,0,1,305.1,4q3.8,0,6.65,1.7a12.8,12.8,0,0,1,2.656,2.12,16.2,16.2,0,0,1,2.194,2.88q2,3.3,3,8.2h2.4L321,.8h-2q-.211.774-.471,1.201a1.6,1.6,0,0,1-.229.299,1.3,1.3,0,0,1-.645.351,2,2,0,0,1-.455.049q-.787,0-1.747-.301A11,11,0,0,1,314.4,2a18,18,0,0,0-1.152-.454q-1.285-.459-2.998-.896a17,17,0,0,0-1.535-.313q-1.056-.169-2.286-.253A39,39,0,0,0,303.8,0q-6.7,0-11.4,2.5t-7.1,6.7a17.7,17.7,0,0,0-1.554,3.594,20,20,0,0,0-.846,5.906l.003.387q.084,5.541,2.597,9.213,2.6,3.8,6.75,6.25T301,38.9l2.2.9q3.384,1.366,5.764,3.031a16.5,16.5,0,0,1,2.786,2.419,10.6,10.6,0,0,1,2.27,3.925,12.8,12.8,0,0,1,.58,3.925q0,3.5-1.45,6.05t-4.1,3.85a12.3,12.3,0,0,1-3.183,1.033,17,17,0,0,1-3.067.267,18,18,0,0,1-2.995-.239A13.6,13.6,0,0,1,295.5,62.6q-3.1-1.7-5.25-4.45t-3.5-5.9-2.25-5.95H282l1.4,20.9z"/>
	</g>
</svg>