<?xml version="1.0" encoding="utf-8"?><!--
Set Dimensions --><svg xmlns="http://www.w3.org/2000/svg" width="8in" height="8in" viewBox="-1300 -1290 2600 2580"><desc>Image created by <a href="https://orcid.org/0009-0001-0977-2029">Matthew Richardson</a></desc><!--
Set Background Line Stroke --><g fill="none" stroke="black"><path id="a" d="m55,1259-55-59,110,55,98-73L0,866h500l-90,262-202,54M0,1260l28,20,27-21,29,18,26-22m163-25,106-28,32,10,20-28,33,9,18-29,34,8,16-30-122-14,72,36m-274,18,65,48m106-28,31-74,21,56m69-318,68,225-36,51m36-51h62m-62,0,14,27,23-1,11,5,16-9,13,4m-13-4-2-22-25,26"/><path d="M0,1260v-2520M1091,630-1091-630m2182,0L-1091,630"/><use href="#a" transform="rotate(60)"/><use href="#a" transform="rotate(120)"/><use href="#a" transform="rotate(180)"/><use href="#a" transform="rotate(240)"/><use href="#a" transform="rotate(300)"/><use href="#a" transform="scale(-1 1)"/><use href="#a" transform="scale(-1 1)rotate(60)"/><use href="#a" transform="scale(1 -1)rotate(-60)"/><use href="#a" transform="scale(1 -1)"/><use href="#a" transform="scale(1 -1)rotate(60)"/><use href="#a" transform="scale(-1 1)rotate(-60)"/></g><!--
Set Letter Color --><g fill="maroon"><path d="M115.381,66.615,85.795,681.528l62.456,108.18,229.117,19.364,94.507-58.36,37.968-89.676-108.148-31.886-21.368,74.019-37.145,24.482-128.693-23.061-24.325-42.134,59.829-518.123ZM8.462,1209.077l-3.196,41.538,3.412,10,13.413,10.462,6.874-.385,4.1-4.846-7.014-6.461-2.307,4.359-2.679.256-7.9-6.692-1.293-3.898,6.461-33.743Zm624.149-116.022,1.05,15.826,1.892,3.275,5.834,2.168,2.002-1.233.401-2.618-2.689-1.37-.167,2.069-.787.516-3.243-1.404-.742-1.287-.31-13.657Zm414.614-488.44,15.75,54.257,6.955,7.955,14.718-3.698,3.504-6.324-1.156-7.332-7.18-.845,1.292,6.223-1.348,2.643-8.392.69-2.729-3.07L1056.551,610ZM1262.919,1.33l6.495,24.726,2.477,3.434,4.742-2.334,1.22-3.361-.246-3.745-2.517.061.41,3.05-.46,1.387-2.813.754-.964-1.33-4.745-20.979Zm-211.597-598.54,70.362,46.013,13.457,4.05,5.882-12.3-3.559-6.703-7.403-4.318-6.428,2.212,6.957,4.273,1.614,2.817-5.26,4.984-5.192-1.484-56.323-36.29ZM635.22-1089.765l21.642,37.246,5.952,3.374,7.974-9.638.393-6-2.734-4.432-4.313,2.076,2.382,3.954-.108,2.49-4.773,4.088-2.332-1.259-17.797-30.347ZM16.923-1208.461l11.598,226.035,27.31.592,86.286-126.075,14.747-51.588-14.884-20.31-30.117,37.5,8.376,20.512-6.156,21.322-42.781,59.023-11.182.45-23.453-177.333ZM-620.461-1091l-12.023,61.513,17.317,29.973,65.688,67.051,12.552-5.744-9.476-35.652-21.59-18.143,4.494,21.521-5.28,1.847-31.852-30.426-7.187-12.44-1.515-79.5ZM-994.73-574.308l-111.496,46.726-13.143,23.947,18.495,54.945,48.433,12.423,60.191-5.232-22.804-25.145-36.665,4.788-18.65-4.85-17.928-30.438,5.98-9.459,139.504-37.73ZM-1255.064,8.165l-10.116,22.716-.054,6.841,5.545,10.388,5.125,2.223,4.89-1.166-3.408-6.115-3.024,1.599-1.997-.802-3.538-6.484.075-2.649,12.066-16.914Zm216.967,610.722-19.151,48.84-3.22,13.68-.097,18.834,3.915,5.267,5.519-.38-.427-12.652-3.748,2.312-1.544-1.873-.199-12.594,1.31-5.239,18.965-34.161ZM-626.154,1095l-2.603,14.911,1.735,3.863,7.377,4.683,3.402.401,1.726-1.367-3.534-2.867-1.026,1.368-1.337-.116-4.172-2.983-.67-1.5,3.59-11.726Z"/><path d="M115.381,66.615,633.118-266.46l124.915.002L889.362-77.71l-3.288,111.026-58.677,77.716-81.688-77.72,53.417-55.511,2.63-44.41-84.318-99.926h-48.651L249.993,144.333Zm517.23,1026.44,24.661-6.738,4.213.428.35,5.274-2.302,2.737-3.365,1.66-1.206-2.211,2.846-1.17.971-1.092-.753-2.813-1.635-.17-20.54,6.38ZM8.462,1209.077l75.03,37.929,10.236,9.628-7.712,11.244-7.584.27-7.442-4.252-1.298-6.674,7.18,3.89,3.246-.011,1.687-7.048-3.882-3.754-59.59-30.632ZM-626.154,1095l43.077.118,5.898,3.468-4.36,11.725-5,3.34-5.205-.152-.359-4.773,4.616.086,2.102-1.339,1.154-6.177-2.256-1.39-35.18-.24Zm-411.943-476.113,201.552-102.974,14.167,23.356-66.041,137.763-37.303,38.565-25.03-2.735,17.416-44.832,21.953-3.002,15.387-15.993,29.725-66.561-5.202-9.909-165.301,68.356Zm-216.967-610.56,47.26-41.29,34.616-.01,90.912,23.364,1.301,13.744-35.613,9.62-26.508-9.614,20.886-6.874-1.041-5.498-42.276-12.366-14.367.004-69.606,38.523Zm260.334-582.635-15.283-119.92,14.168-23.356,56.831-11.456,34.975,35.733,25.564,54.743-33.178-7.177-14.186-34.146-13.524-13.727-35.325-.307-5.202,9.909,37.077,139.679ZM-620.461-1091l14.615-20.118,5.897-3.468,11.77-.392,4.487,3.327,1.436,4.819-7,.106-.129-3.42-1.692-1.327-7.385.177-2.256,1.39-8.615,18.906Zm637.384-117.461,32.722-41.006,10.237-9.629,16.262-9.5,6.519.756,2.43,4.97-11.17,5.955.128-4.401-2.394-.4-11.006,6.124-3.882,3.754-20.102,33.505Zm618.297,118.696,11.613-9.71,4.213-.429,7.744,4.047,2.048,2.746-.32,2.178-4.251-1.627.671-1.572-.768-1.1-4.669-2.122-1.635.17-8.36,8.971Zm416.102,492.555,34.376-23.537,10.366-2.045,15.766,6.385,3.104,6.145-2.147,5.974-9.102-2.843,2.62-4.178-1.116-2.448-9.746-3.495-4.022.828-25.992,22.468ZM1262.919,1.492l14.23-7.107h3.783l4.794,4.027-.066,2.353-2.067,1.636-2.531-1.648,1.708-1.173.053-.942-2.837-2.126h-1.486l-11.982,6.61Zm-215.694,603.123,54.863-13.487,10.366,2.045,4.157,14.595-3.726,6.197-6.927,2.664-4.322-5.795,6.036-1.993,1.614-2.489-3.599-7.612-4.022-.828L1056.55,610ZM471.727-817.035l-121.301,10.249L0-444.103v155.436l380.338-414.495L482.893-347.88l167.155-89.675-28.761-61.206-35.503,17.08L471.89-750.704l28.6-5.124ZM674.072,1062.75l-4.222-5.101-24.119,5.912-5.564,9.637,26.349-10.013-11.433,18.98,7.64-1.185,1.83-2.94-1.574.038,8.202-13.295,1.06.908Zm-496.426,97.073-45.68-66.746L0,1028.717v59.95l120.24,33.128-40.206,98.461,27.704,18.87,11.276-12.79-6.801-5.91,44.65-60.929,9.508,13.116Zm-700.057-254.958-34.777,35.497-88.543,123.199,5.564,9.637,76.695-102.702-21.548,103.317,16.613-4.077,7.419-26.592-4.343,2.032,28.424-106.957,7.077-6.762Zm-570.848-478.8-9.791,29.089,11.188,110.096,18.421,12.162,21.722-115.556,175.992,22.98,60.24-37.458-44.802-3.437-11.578,8.024-180.574-15.698,3.984-6.764Zm-164.146-478.453-2.936,5.5-4.63,29.214,1.798,6.22,7.067-33.197,14.52,7.673,6.67-11.604-3.627-.614-1.348,2.36-14.673-3.497.786-1.441Zm196.801-655.608.05,9.971,9.223,58.47,4.235,13.844-8.21-69.077,17.99,11.097,1.5-26.232-3.998.31-.278,5.247-16.558-1.142.044-2.799Zm443.997-412.389-3.906,2.479-10.513,15.624.36,3.949,11.59-17.659,4.922,6.565,5.556-5.598-1.292-.864-1.175,1.132-5.178-4.101.927-.663Zm644.22-155-7.1,5.539L0-1230.77v10.77l23.744-43.744,11.077,20.923,12.053-12.692-3.107-3.205-2.5,2.564-12.303-14.538,1.756-1.487Zm616.298,160.239-3.115,1.132-9.77,11.732-.36,3.949,10.355-12.788.774,9.916,4.012-2.751-.306-1.805-.859.553-1.15-7.823.725-.31Zm446.798,453.54-7.792-1.958-31.586,24.01-4.235,13.843,34.012-29.14-6.203,29.872,11.512-5.908.692-4.955-2.425,1.031,3.468-21.994,1.864.153Zm187.877,635.411-2.51-1.236-11.106,9.757-1.797,6.22,12.328-11.707-1.97,14.639,4.385-1.753.108-2.568-.907.282.736-11.234.625.168Zm-135.141,590.707L1140.33,558l-48.469,7.25-18.421,12.162,57.15-13.43-33.397,20.512,16.42-2.962,4.811-2.745-3.172.319,22.211-12.956,1.17,1.108ZM-471.727-817.035l121.301,10.249L0-444.103v155.436l-380.338-414.495-102.555,355.282-167.155-89.675,28.761-61.206,35.503,17.08,113.895-269.023-28.6-5.124Zm444.114-458.35,7.1,5.539L0-1230.77v10.77l-23.744-43.744-11.077,20.923-12.053-12.692,3.107-3.205,2.5,2.564,12.303-14.538-1.756-1.487Z"/><path d="m-643.911-1115.146,3.115,1.132,9.77,11.732.36,3.949-10.355-12.788-.774,9.916-4.012-2.751.306-1.805.859.553,1.15-7.823-.725-.31Zm-446.798,453.54,7.792-1.958,31.586,24.01,4.235,13.843-34.012-29.14,6.203,29.872-11.512-5.908-.692-4.955,2.425,1.031-3.468-21.994-1.864.153Zm-187.877,635.411,2.51-1.236,11.106,9.757,1.797,6.22-12.328-11.707,1.97,14.639-4.385-1.753-.108-2.568.907.282-.736-11.234-.625.168Zm135.141,590.707,3.114-6.512,48.469,7.25,18.421,12.162-57.15-13.43,33.397,20.512-16.42-2.962-4.811-2.745,3.172.319-22.211-12.956-1.17,1.108Zm469.373,498.238,4.222-5.101,24.119,5.912,5.564,9.637-26.349-10.013,11.433,18.98-7.64-1.185-1.83-2.94,1.574.038-8.202-13.295-1.06.908Zm496.426,97.073,45.68-66.746L0,1028.717v59.95l-120.24,33.128,40.206,98.461-27.704,18.87-11.276-12.79,6.801-5.91-44.65-60.929-9.508,13.116ZM522.43,904.854l34.777,35.497,88.605,123.163-5.534,9.62-76.78-102.653,21.573,103.302-16.647-4.057-7.418-26.592,4.349,2.028-28.428-106.955-7.078-6.761Zm570.829-478.789,9.791,29.089-11.188,110.096-18.421,12.162-21.722-115.556-175.992,22.98-60.24-37.458,44.802-3.437,11.578,8.024,180.574-15.698-3.984-6.764Zm164.146-478.453,2.936,5.5,4.63,29.214-1.798,6.22-7.067-33.197-14.52,7.673-6.67-11.604,3.627-.614,1.348,2.36,14.673-3.497-.786-1.441Zm-196.801-655.608-.05,9.971-9.223,58.47-4.235,13.844,8.21-69.077-17.99,11.097-1.5-26.232,3.998.31.278,5.247,16.558-1.142-.044-2.799Zm-443.996-412.389,3.905,2.479,10.513,15.624-.36,3.949-11.59-17.659-4.922,6.565-5.556-5.598,1.292-.864,1.175,1.132,5.178-4.101-.927-.663ZM-634.597,366.385l519.216-299.77-87.111,150.882-55.225,29.037,155.156,86.544,16.766,348.45,28.598-5.125,3.287,105.333-121.296,10.25-42.735-370.087-205.452-88.252-55.225,29.038,106.838,370.09,28.598-5.124,19.724,76.865-148.251,12.53-28.764-61.209,28.598-5.125Zm-10.512,735.485,12.498-8.815-2.404,4.128-1.337.894,3.286,1.836-.596,8.968.72-.312-.208,2.695-3.09,1.147.222-9.755-4.346-1.897-1.338.894.835,10.347.72-.312.133,2.126-3.775,1.402-.32-1.813.72-.312Zm598.571,148.053,38.076-40.846-6.074,13.846-3.965,4.154h11.424l1.81,23.538,1.756-1.487.355,7.18-7.1,5.538-4.616-24.102-15.522,1.795-3.965,4.153,11.539,21.795,1.755-1.487,2.13,4.615-8.678,6.77-3.107-3.206,1.755-1.487ZM608.846,1113l17.308-18-2.623,5.54-1.835,1.832,5.586-.91,1.475,8.45.927-.664.375,2.597-3.905,2.48-2.564-8.376-7.397,1.92-1.834,1.832,5.128,6.838.927-.663.967,1.479-4.774,3.03-1.291-.864.927-.663Zm-1692.044-487.615,35.973-20.77-8.953,12.184-3.797,1.885,5.925,9.443-8.926,30.745,1.865.154-2.758,9.324-7.792-1.958,8.634-32.224-8.34-9.83-3.797,1.885-6.46,31.118,1.864.153-1.425,6.505-9.524-2.393.693-4.954,1.864.153ZM-1276.801,7.746l13.882-6.416-3.485,5.041-1.442.552,2.113,5.121-3.681,14.012.625.167-1.15,4.229-2.51-1.236,3.39-14.984-3.112-5.652-1.442.552-2.052,15.249.625.167-.477,3.157-3.069-1.51.108-2.568.625.168Zm171.067-592.404,54.412-12.553-20.611,9.145-5.33.885-4.55,9.91-39.871,26.073,1.168,1.108-12.203,8.009-3.114-6.513,40.23-25.921,2.348-10.01-5.33.886-34.788,21.366,1.169,1.107-7.435,4.613-3.806-7.96,4.812-2.745,1.169,1.108Zm446.271-499.118,24.242-5.99-7.79,6.754-2.51.328.922,9.059-12.263,21.106,1.06.909-3.728,6.433-4.222-5.102,12.712-21.676-2.01-9.747-2.51.327-11.908,19.772,1.06.908-2.504,4.18-5.16-6.236,1.83-2.94,1.061.908Zm566.386-162.762,76.154,38.077-17.646,26.33-9.428-6.804,22.048,78.422-6.572,128.087,9.507,13.116-1.288,39.389-45.68-66.746,16.751-126.666-23.05-86.016-9.428-6.805-41.88,102.564,9.506,13.117-7.732,22.228-55.831-81.578,11.275-12.79,9.507,13.116ZM577.539-1091h42.923l-7.57,13.07-5.744,1.69,18.523,11.896,6.813,34.857,7.078-6.761,2.653,9.125-34.776,35.498,1.082-56.786-18.605-22.758-5.744,1.69-22.471,107.607,7.078-6.762-3.844,20.394-42.504,43.386,7.418-26.592,7.078-6.761Zm216.939,632.308L994.73-574.308l-13.98,28.448-19.538,12.396,81.833-20.596,63.18,26.478,3.985-6.764,16.774,8.087-9.791,29.089-99.646-26.95-114.949,27.845-19.538,12.396,183.325,23.938,3.984-6.764,34.857,5.087-11.967,35.553-44.802-3.438,3.984-6.764Zm439.125,504.029,21.461-37.172-1.953,10.123-2.184,3.802,8.52-4.082,5.733,12.873.786-1.44,1.552,4.004-2.936,5.5-8.618-12.082-11.588,6.633-2.184,3.802,15.124,7.992.787-1.44,2.89,1.816-3.588,6.722-3.627-.614.786-1.44Zm-200.607,658.539,5.1-84.99,2.387,22.423-.483,8.569,6.396-9.827,10.852,27.676.044-2.798,3.137,8.723.05,9.97-13.545-24.4-8.385,16.363-.483,8.569,18.74,11.56.044-2.8,3.692,2.895.062,12.187-3.998.31.044-2.798ZM-943.436.01l185.403-266.468,124.915-.002,517.737,333.075-173.072,99.923,8.547-44.41-388.88-288.663h-48.65L-820.493-44.404l320.507,333.07-134.612,77.719-251.476-333.069-18.738,22.206ZM-82.84-1272.508l22.958,13.412,10.237,9.629,32.722,41.006-25.385-12.693,4.205.428-18.666-31.112-3.882-3.754-13.452-7.485.77,26.41-19.744-9.872,10.414-21.301-2.446-1.361Z"/><path d="m-1118.322-613.778,22.258-9.014,10.366,2.045,34.376,23.536-18.138,4.185,2.174-2.535-24.135-20.863-4.022-.828-11.911,4.272,15.726,25.068-14.106,3.254-9.2-25.604-2.166.776ZM-1287.7.07l6.768-5.685h3.782l14.231,7.107-4.627,2.095.172-.938-11.126-6.138h-1.486l-3.468,2.6,10.252,7.036-3.6,1.629-8.858-7.01-.63.472Zm169.378,613.708,5.868-20.605,10.366-2.045,54.863,13.487-11.99,6.923-.558-2.401-41.892-11.225-4.022.828-4.399,9.304,36.215,11.956-9.327,5.385-29.687-11.42-.8,1.691Zm456.344,480.412.493-7.445,4.213-.428,24.661,6.738-4.166,2.938-.541-1.109-19.073-5.924-1.635.17-.921,3.438,17.078,7.016-3.24,2.285-14.424-7.113-.168.625Zm579.138,178.318-10.888-15.874,10.237-9.628,75.03-37.93-12.693,13.616-1.436-.837-55.333,28.444-3.882,3.754,2.061,8.614,43.077-23.334-9.871,10.59-31.894,18.225.375,1.566Zm666.173-157.369-6.154-16.553,5.898-3.468,43.077-.118-5.77,6-1.23-1.316-32.667.222-2.256,1.39,1.41,7.55,27.692-.513-4.487,4.667-22.308.65.257,1.374Zm332.28-381.382L822.378,539.27l14.167-23.356,201.552,102.974-1.7,28.33-11.43-11.179-153.494-63.473-5.202,9.909,36.331,81.353,131.716,18.015-1.322,22.034-107.274,11.72,6.606,14.792ZM1044.841.011l128.347-32.984,34.615.01,47.261,41.29-7.153,12.347-3.383-5.496-64.634-35.771-14.367-.004-51.67,15.114,125.31,41.247-5.564,9.603-152.628-41.232-9.395,2.748ZM915.613-733.757l80.232,16.173,14.168,23.356-15.283,119.92-66.75,38.539,17.481-18.541,34.428-129.702-5.201-9.91-43.175.376-85.118,204.88-51.917,29.974,109.56-234.615-7.85.068Zm-332.28-381.382,16.616.553,5.897,3.468L620.461-1091h-14.307l2.564-1.35-8-17.556-2.256-1.39-9.026-.217-.77,20.513h-11.128l6.154-20.65-1.64-.04Zm-1245.311,20.949,10.932-5.714,4.213.428,11.612,9.71-8.08,1.997,1.198-1.084-7.764-8.332-1.634-.169-5.706,2.593,4.029,9.432-6.285,1.553-1.375-9.335-1.038.472Z"/></g></svg>
